<svg xmlns="http://www.w3.org/2000/svg"
    xmlns:xlink="http://www.w3.org/1999/xlink" version="1.1" x="0px" y="0px" viewBox="0 0 32 32" enable-background="new 0 0 32 32" xml:space="preserve">
    <path fill-rule="evenodd" clip-rule="evenodd" fill="#000000" d="M27,29h-8.001C17.896,29,17,28.104,17,27V5  c0-1.104,0.896-2,1.999-2H27c1.104,0,2,0.896,2,2v22C29,28.104,28.104,29,27,29L27,29z M27,6C27,5.448,26.553,5,25.999,5H20  C19.447,5,18.999,5.448,18.999,6v20c0,0.553,0.448,1,1.001,1h5.999C26.553,27,27,26.553,27,26V6L27,6z M13,29H4.999  C3.896,29,3,28.104,3,27V5c0-1.104,0.896-2,1.999-2H13c1.104,0,2,0.896,2,2v22C15,28.104,14.104,29,13,29L13,29z M13,6  C13,5.448,12.553,5,11.999,5H6C5.447,5,4.999,5.448,4.999,6v20c0,0.553,0.448,1,1.001,1h5.999C12.553,27,13,26.553,13,26V6L13,6z"/>
</svg>