<svg xmlns="http://www.w3.org/2000/svg"
    xmlns:xlink="http://www.w3.org/1999/xlink" version="1.1" x="0px" y="0px" viewBox="0 0 55 55" style="enable-background:new 0 0 55 55;" xml:space="preserve">
    <style>svg { background-color: #FFA648; }</style>
    <g fill="#2367A8">
        <path d="M5.2994528,46.3169899c0.4184842,0.1370392,0.829495,0.0664291,1.1943359-0.199707   c5.0654316-3.6995316,12.8688498-9.751152,18.0874023-13.1318359c0.0205688-0.0133057,0.0324707-0.0335693,0.050415-0.0492554   c3.9435425-1.6231689,7.8273926-3.0826416,11.3865967-4.4023438c0.6417427,4.7194824,1.4157982,11.8641968,2.0488281,16.4647827   c0.0327148,0.237793,0.3203125,0.4233398,0.5605469,0.4355469c0.2701416,0.0136337-0.4394493-0.0227547,1.9145508,0.0961914   c0.2641602,0,0.4853516-0.2075195,0.4990234-0.4746094c0.0141602-0.2758789-0.1982422-0.5107422-0.4741211-0.5249023   l-1.5654297-0.0791016c-0.6286316-4.6574059-1.3567924-11.3669243-1.9851074-15.9950562   c0.2431641,0.0209961,0.4503174,0.0721436,0.6314087,0.1514893c0.7787476,2.6422729,2.9020386,4.9437256,5.6654053,5.5336304   c4.5669212,0.9747963,8.7117767-2.9447994,9.2302246-7.3818359c0.0994263-0.8508911,0.0789795-1.5702515-0.0479736-2.2265015   c-0.1060791-0.9760742-0.4358521-1.9351196-1.0759888-2.7731323c-1.6723633-2.1879883-3.9321289-3.4116211-6.3637695-3.4448242   c-2.9985352-0.0375977-5.9326172,1.8481445-7.1049805,4.5922852c-0.3339233,0.7824097-0.4991455,1.6234741-0.538208,2.4724731   c-0.0795288,0.5274658-0.1051025,1.0610352-0.0652466,1.593811c-0.1004791,0.0372791-0.3353043,0.1243534-0.4017334,0.1489258   c0.289856-5.1420288-1.4505615-13.5068979-3.8668823-18.2362061c-0.1254883-0.2456055-0.4267578-0.3422852-0.6728516-0.2177734   c-0.2460938,0.1254883-0.3432617,0.4267578-0.2177734,0.6728516c2.3812256,4.6605225,4.1330566,13.3090219,3.7220459,18.1652832   c-3.6959839,1.3696289-7.7541504,2.8898315-11.8758545,4.592041c-1.9816608,0.8176231-4.4222641,1.0908165-6.5429688,1.5986328   c-2.4393473,0.5824242-9.1193399,2.1454544-11.6450205,3.1191406c-0.0112305-0.1376953-0.0776367-0.2719727-0.1918945-0.3637695   c-0.1264648-0.1020508-0.2773438-0.675293-0.3676758-1.0175781c-0.2456055-0.9311523-0.6157227-2.3369141-1.8989255-2.0327148   c-1.1977539,0.2861328-1.0170898,1.6616211-0.9301758,2.3227539c0.0311987,0.1011124,0.1055567,2.4614258,2.0029294,2.4614258   c0.6113281,0,1.2412109-0.2426758,1.7407227-0.4355469c2.4595184-0.9474182,9.2278929-2.5331345,11.5224619-3.0810547   c1.0589352-0.2531586,2.2814636-0.4574051,3.7141113-0.7711792c-4.7003174,3.2594719-10.6385279,7.8070488-14.7185068,10.8121948   c-0.2644844-0.7143364-0.3497009-1.6783142-1.1870117-2.2250977c-0.6046758-0.3943558-1.5009527-0.3162346-1.9038084,0.3076172   c-0.2338867,0.362793-0.2612305,0.8330078-0.0825195,1.3969727C3.7242577,44.7554665,4.3878317,46.0181618,5.2994528,46.3169899z    M3.7491601,36.7530251c-0.2503328-0.4189606-0.2686796-0.9747009-0.300293-1.1572266   c-0.0523651-0.3985252-0.1737552-1.2270508,0.2260742-1.2270508c0.2504883,0,0.4125974,0.4399414,0.644531,1.3212891   c0.1499023,0.5693359,0.2924805,1.1108398,0.5976563,1.4389648C4.3614645,37.2642555,4.009902,37.1871071,3.7491601,36.7530251z    M49.6201935,21.2665749c-0.7647705-0.2536621-1.5548706-0.4358521-2.3539429-0.5203857   c0.3449097-0.2270508,0.6622314-0.3706665,1.0690308-0.4569702C48.7851715,20.5610695,49.214798,20.8868752,49.6201935,21.2665749z    M50.52388,22.2481422c0.0327148,0.0413818,0.0684814,0.0773926,0.100769,0.1196289   c0.3225708,0.4221191,0.5508423,0.9187622,0.7010498,1.4533691c-0.8543701-0.6864624-1.8966064-1.1530151-2.9832764-1.3034668   C49.02742,22.230442,49.7898102,22.1430397,50.52388,22.2481422z M51.4826813,24.6410866   c0.0612183,0.538208,0.0435181,1.0976563-0.0504761,1.6605225c-0.5471191-0.6040649-1.2565308-1.0594482-2.046814-1.2663574   C49.9599762,24.5732155,50.7837677,24.4120827,51.4826813,24.6410866z M47.7264557,19.9615211   c-0.4472046,0.1702271-0.8394775,0.4182129-1.3083496,0.7871094c-0.0820313,0.0644531-0.1152344,0.1733398-0.0830078,0.2729492   c0.0317383,0.0996094,0.1225586,0.168457,0.2270508,0.1733398c0.9726563,0.0415039,1.9477539,0.2211914,2.878418,0.5273438   c-0.7548828,0.0839844-1.4907227,0.3520508-2.112793,0.7861328c-0.2048454,0.1428375-0.0896873,0.4793015,0.1469727,0.4550781   c1.1728516-0.03125,2.3701172,0.3720703,3.3291016,1.0649414c-0.8061523,0.0068359-1.6113281,0.3686523-2.1191406,1.0048828   c-0.1208916,0.1503258-0.0307045,0.3769684,0.1611328,0.4033203c0.9855347,0.135498,1.8703003,0.7036743,2.4521484,1.5029907   c-0.1382446,0.5055542-0.3339844,1.0045776-0.5996094,1.4769897c-0.8212891,1.4604492-1.8598633,2.2402344-3.1665039,2.9619141   c-1.8115692,0.9992676-4.3584785,0.9694824-6.3571167-0.336853c-0.6350098-0.4151001-1.1777344-0.9481812-1.6317139-1.5498657   c-1.2166748-1.7706299-1.5248413-4.194458-0.6723022-6.1914063C40.1707115,20.2549267,44.0537376,18.2100658,47.7264557,19.9615211   z M4.4688864,43.3360329c0.0832-0.128582,0.3643246-0.1120071,0.5166016-0.0126953   c0.5187039,0.3386459,0.5732646,1.2844429,0.9038086,1.996582c-0.1132813,0.0771484-0.1938477,0.0737305-0.2783203,0.046875   c-0.4326172-0.1416016-0.9555664-0.9829102-1.1118164-1.4780273C4.4171286,43.6299782,4.4063864,43.4332008,4.4688864,43.3360329z"/>
        <path d="M47.1930084,27.4580421c-0.260376,0.0049438-0.4257813,0.387207-0.2349243,0.5719604   c0.1168213,0.1130981,0.2975464,0.0822754,0.4255981-0.0115967c0.0059204,0.1315918-0.0092773,0.2636719-0.0539551,0.3879395   c-0.0463867,0.1298828,0.0209961,0.2729492,0.1508789,0.3198242c0.1338081,0.0469494,0.2741661-0.0236454,0.3198242-0.1508789   c0.2729492-0.7602539-0.1210938-1.6777344-0.8608398-2.003418c-0.1240234-0.0537109-0.2734375,0.0019531-0.3295898,0.128418   c-0.0556641,0.1259766,0.0019531,0.2739258,0.128418,0.3295898C46.933548,27.115696,47.0801544,27.2759743,47.1930084,27.4580421z"/>
        <path d="M44.8316803,22.5174904c-0.2392578,0.1316528-0.3563232,0.503418-0.1477661,0.7053833   c0.1552734,0.1502686,0.3956909,0.1085205,0.5651245-0.0170898c0.0356445,0.1845093,0.0429688,0.3729248-0.0203857,0.5491943   c-0.058239,0.1630611,0.0628891,0.3344727,0.2353516,0.3344727c0.1025391,0,0.1987152-0.0634766,0.2353516-0.1655273   c0.2729492-0.7607422-0.1210938-1.6782227-0.8608398-2.003418c-0.1259766-0.0537109-0.2734375,0.0019531-0.3295898,0.128418   c-0.0556641,0.1264648,0.0019531,0.2739258,0.128418,0.3295898C44.7110748,22.410862,44.7684479,22.4684181,44.8316803,22.5174904z   "/>
        <path d="M43.2006378,29.8649635c0.6311646,0.2850342,1.472168-0.2225342,1.5140991-0.9138184l-0.0911865-0.5025024   c-0.2820435-0.6324463-1.2477417-0.8122559-1.7385864-0.3237305   C42.3941803,28.6134377,42.5695343,29.5799904,43.2006378,29.8649635z"/>
        <path d="M39.7662506,15.0943327c-0.1298828,0.0463867-0.1977539,0.1889648-0.1513672,0.3193359   c0.1884766,0.5297852,0.496582,1.0224619,0.8901367,1.4243174c0.0488281,0.050293,0.1137695,0.0751953,0.1787109,0.0751953   c0.2193604,0,0.3341255-0.2662525,0.1787109-0.4248047c-0.34375-0.3505859-0.6123047-0.7802744-0.7768555-1.2426767   C40.0396881,15.1163054,39.8961334,15.0459929,39.7662506,15.0943327z"/>
        <path d="M41.6109772,13.9956999c-0.1376953,0.0083008-0.2431641,0.1264648-0.2348633,0.2641602l0.1132813,1.9145517   c0.0078125,0.1328125,0.1181641,0.2353516,0.2495117,0.2353516c0.0048828,0,0.0097656,0,0.0146484-0.0004883   c0.1376953-0.0083008,0.2431641-0.1264648,0.2348633-0.2641602l-0.1132813-1.9145517   C41.8668365,14.0928679,41.7457428,13.982028,41.6109772,13.9956999z"/>
        <path d="M43.6095123,14.1797819l-0.4165039,1.5c-0.0371094,0.1333008,0.0410156,0.2709961,0.1738281,0.3076172   c0.1312523,0.0370932,0.270916-0.0394545,0.3076172-0.1738281l0.4165039-1.5   c0.0371094-0.1333008-0.0410156-0.2709961-0.1738281-0.3076172C43.7818756,13.9688444,43.6461334,14.0469694,43.6095123,14.1797819   z"/>
    </g>
</svg>