<svg xmlns="http://www.w3.org/2000/svg"
    xmlns:xlink="http://www.w3.org/1999/xlink" version="1.1" x="0px" y="0px" viewBox="0 0 55 55" style="enable-background:new 0 0 55 55;" xml:space="preserve">
    <g>
        <path d="M48.7672768,6.2362347c0.0163574-0.0391846,0.0386963-0.0766602,0.0328979-0.1217651   c-0.1650391-1.2631836-1.2700195-2.3515623-2.5698242-2.5322263c-0.128418-0.0170898-0.2631836,0.0761719-0.2817383,0.2133789   c-0.019043,0.1367188,0.0761719,0.2626951,0.2133789,0.281738c0.9466553,0.1317139,1.7681885,0.8369141,2.0527344,1.7106323   c-0.8579102-0.6317139-1.7839355-1.0431519-2.7561646-1.2294312c-0.6588135-0.9020994-1.7728882-1.4512327-2.9284058-1.4333494   c-0.3255615,0.0092359-0.320118,0.5,0.0068359,0.5c0.1009903,0.0182302,1.1552048-0.1159401,2.1594238,0.8203123   c-0.7888794-0.0558472-1.602478,0.0467529-2.425354,0.274353c-0.7369385-0.6291504-1.7592773-0.9356077-2.7306519-0.7802122   c-0.1367188,0.0219727-0.2294922,0.1499021-0.2080078,0.2861326s0.1499023,0.2290039,0.2861328,0.2080078   c0.7174683-0.1157837,1.4645386,0.067749,2.0617676,0.4628906c-0.3215065,0.1149197-0.6399078,0.125442-1.3041382,0.3907471   c-5.9647179,2.3826966-7.2505531,9.5753527-3.5292969,13.637207c0.0726318,0.0792847,0.1547241,0.157959,0.2393799,0.2363281   c-0.1140137,0.3151855-0.2926025,0.6235962-0.5125732,0.9387207c-2.9134521-0.5689087-5.8833008-0.8931885-8.8486938-0.9368896   c-0.1323242-0.0131836-0.2490234,0.0439453-0.3422852,0.1289063c-2.3818569,2.1513863-4.9308815,4.5634403-7.3183594,6.7202148   c-0.2050781,0.1850586-0.2211914,0.5014648-0.0361328,0.7060547c0.185854,0.2060947,0.5031548,0.2203045,0.7060547,0.0361328   c2.3567505-2.1287079,4.8337975-4.4715271,7.1723633-6.5878906c2.6868896,0.050415,5.3760376,0.3371582,8.0214844,0.8278198   c-1.6127548,2.2281647-5.1781788,7.9299259-8.0836182,13.4750385c-0.9505615,1.2640381-1.9056396,2.5061035-2.8602295,3.7005615   c-1.1441002,1.4304352-1.6406708,1.5177727-3.262207,0.8251953l-9.5541983-4.074707   c-0.3176508-0.1355476-0.6770172,0.0855446-0.6958008,0.434082c-0.1159344,2.2699928-0.7823257,4.7877312,0.5644531,5.6176758   c0.7481918,0.4597702,1.7685814,0.0815048,2.171875-0.6743164c0.3305664-0.6186523,0.2827148-1.4394531-0.1245117-2.1411133   c-0.3334961-0.5742188-0.840332-1.0004883-1.3388672-1.3754883c-0.1142578-0.0859375-0.2539063-0.1162109-0.3833008-0.09375   c0.0200195-0.1899414,0.0395508-0.3803711,0.0571289-0.5727539l8.9106436,3.800293   c0.6450195,0.2749023,1.5302734,0.6523438,2.4311523,0.4370117c0.9389648-0.2246094,1.5800781-1.0268555,2.0048828-1.5576172   c1.7060547-2.1349487,3.4174805-4.3989868,5.0917969-6.7276001c3.0129395,1.468689,6.2281494,3.3318481,8.8720703,5.1426392   c0.2651367,4.6005859,0.8803711,9.2167969,1.8300781,13.7255859c0.0361328,0.1704102,0.1582031,0.3100586,0.3222656,0.3681641   c0.8291016,0.293457,1.9291992,0.5722656,3.1181641,0.5722656c0.8218575,0,2.2899361-0.1773033,2.8554688-0.7719727   c0.3574219-0.3754883,0.4311523-0.934082,0.1743164-1.3291016c-0.1875-0.2875977-0.4780273-0.4106445-0.7382813-0.4936523   c-1.6367188-0.5180664-3.4741211-0.269043-4.9140625,0.668457c-0.8642578-4.2910156-1.4238281-8.6738281-1.6635742-13.0400391   c-0.0083008-0.1542969-0.0874023-0.2958984-0.2148438-0.3837891c-2.6776123-1.8520508-5.9653931-3.7683716-9.0559082-5.284853   c2.0846558-2.9338989,4.1054688-5.9550781,5.9713135-8.9491577c0.8482056,2.6866455,2.6375732,5.4697876,4.7843018,7.3560791   c0.1791916,0.1578369,0.4443092,0.1661415,0.6337891,0.0219727c0.6660156-0.5087891,1.34375-1.0209961,2.0200195-1.53125   c1.5996094-1.2080078,3.253418-2.456543,4.6762695-3.6152344c0.2138672-0.1743164,0.2460938-0.4892578,0.0717773-0.7036133   c-0.1733398-0.2124023-0.4887695-0.246582-0.7036133-0.0717773c-1.9141846,1.5590935-4.2734184,3.299551-6.340332,4.8745117   c-2.116272-1.9804077-3.8099976-4.8604736-4.4230347-7.5072632c0.1837769-0.3005371,0.3705444-0.6019287,0.5509644-0.9014282   c0.6752319,0.3220215,1.4484863,0.5700684,2.2576294,0.6967773c1.7030144,0.4422073,3.3310852,0.3127155,4.7599487-0.2407227   C51.5677147,18.4006138,53.1848602,10.173418,48.7672768,6.2362347z M13.2186327,38.6584167   c0.3243866,0.5591202,0.3043442,1.3262024-0.3144531,1.4926758c-0.578949,0.1541328-0.6772671-0.5786171-0.6918945-1.1796875   c-0.0107422-0.4428711,0.0126953-0.8706055,0.0498047-1.3012695   C12.6829882,37.9948425,13.0081835,38.2951355,13.2186327,38.6584167z M47.1829872,50.3000183   c0.0364647,0.3464241-1.8749199,0.8655128-4.0229492,0.3427734C44.3118935,49.9865417,47.0828819,50.2890854,47.1829872,50.3000183   z M50.2493935,12.9836102c-0.2099609,2.9394531-2.2280273,5.7163086-4.9082031,6.7529297   c-2.6630859,1.0292969-5.8422852,0.215332-7.5551758-1.9384766c-1.7250977-2.1699219-1.8608398-5.6494141-0.3154297-8.0947266   c0.9047852-1.4321289,1.8476563-2.5615234,3.5078125-3.4179688h0.0004883   c2.3971863-1.2369623,4.7886047-1.1935282,6.8530273,0.4501953C49.6043739,8.1462078,50.4403114,10.3063641,50.2493935,12.9836102z   "/>
        <path d="M40.7996864,9.1208172c-0.1220703,0.0649414-0.168457,0.2163086-0.1035156,0.3378906   c0.0649414,0.1220703,0.2167969,0.1679688,0.3378906,0.1035156c0.1896362-0.1011963,0.3989868-0.1819458,0.6505737-0.2008667   c-0.4361229,0.5258389,0.0646324,1.3308201,0.7669067,1.1329956c0.3317299-0.093586,0.5627289-0.3684921,0.5072632-0.7748413   c0.1164551,0.064209,0.2364502,0.1340942,0.3657837,0.2191772c0.1116409,0.0739946,0.2680817,0.0465708,0.3461914-0.0717773   c0.0756836-0.1152344,0.0439453-0.2700195-0.0717773-0.3461914C42.5013466,8.7985516,41.6380653,8.6740398,40.7996864,9.1208172z"/>
        <path d="M48.0070839,11.6429729c-0.0402222-0.0557251-0.0955811-0.0894165-0.1575928-0.1091919   c-0.3782349-0.2598267-0.8085938-0.4314575-1.2514648-0.4608154c-0.1381836-0.0083008-0.2568359,0.0952148-0.2661133,0.2329102   c-0.0087891,0.1376953,0.0952148,0.2568359,0.2329102,0.2661133c0.1453247,0.0095825,0.2913208,0.0393066,0.4347534,0.0844116   c-0.4668846,0.4637566,0.101902,1.1939087,0.4656372,1.1939087c0.1850128,0,0.4554253-0.1567659,0.5913696-0.4609375   c0.0059814,0.0075684,0.0140991,0.0133057,0.0199585,0.0209961c0.0853386,0.1106844,0.243103,0.1291122,0.3505859,0.0458984   c0.109375-0.0839844,0.1298828-0.2407227,0.0458984-0.3505859C48.3380165,11.9296551,48.1778603,11.7790203,48.0070839,11.6429729z   "/>
        <path d="M40.4129677,15.1130047c-0.6775551-0.2159576-1.089798-1.0727406-0.8344727-1.7392578   c0.0493164-0.1289063-0.0151367-0.2734375-0.144043-0.3227539c-0.1269531-0.0493164-0.2729492,0.0146484-0.3227539,0.144043   c-0.1708984,0.4448242-0.1401367,0.9672852,0.0834961,1.4335938c0.3153305,0.6568203,0.9400024,0.9726563,1.1416016,0.9726563   c0.105957,0,0.2041016-0.0678711,0.2382813-0.1738281C40.6170692,15.2956219,40.5443153,15.1549969,40.4129677,15.1130047z"/>
        <path d="M20.6849403,16.4118328c0-0.1381836-0.1118164-0.25-0.25-0.25H10.1112108c-0.1381836,0-0.25,0.1118164-0.25,0.25   s0.1118164,0.25,0.25,0.25h10.3237295C20.5731239,16.6618328,20.6849403,16.5500164,20.6849403,16.4118328z"/>
        <path d="M17.7425575,20.7331219c0-0.1381836-0.1118164-0.25-0.25-0.25H3.9617965c-0.1381836,0-0.25,0.1118164-0.25,0.25   s0.1118164,0.25,0.25,0.25h13.5307608C17.6307411,20.9831219,17.7425575,20.8713055,17.7425575,20.7331219z"/>
        <path d="M8.7581835,25.8561687h7.7250967c0.1381836,0,0.25-0.1118164,0.25-0.25s-0.1118164-0.25-0.25-0.25H8.7581835   c-0.1381836,0-0.25,0.1118164-0.25,0.25S8.6199999,25.8561687,8.7581835,25.8561687z"/>
    </g>
</svg>