<svg xmlns="http://www.w3.org/2000/svg"
    xmlns:xlink="http://www.w3.org/1999/xlink" version="1.1" x="0px" y="0px" viewBox="0 0 55 55" style="enable-background:new 0 0 55 55;" xml:space="preserve">
    <g>
        <path d="M7.3124824,12.0268717c0.3325195-0.9521484,0.8662114-1.8369141,1.5458989-2.5883789   c1.0474033,0.1696129,1.9251308-0.6045008,2.0922852-1.5820317c0.5742798-0.2190552,1.1511841-0.4377441,1.7304688-0.6538086   L11.135725,17.2246246c-0.0244141,0.1572266,0.027832,0.3168945,0.140625,0.4296875   c2.8881836,2.8896484,6.4189453,5.2407227,10.2119141,6.7993164c0.4935303,0.2027588,0.9802246,0.3231201,1.4619141,0.3904419   c0.0752563,0.8237305,0.043396,1.7116699,0.1108398,2.6177368c0.2003784,2.692627,0.4006958,5.3851929,0.6010132,8.0778198   c-2.366394,0.8475304-5.1931381,2.4441643-7.5985718,3.5101929c-0.6899414,0.3056641-1.1777344,0.9462891-1.2739258,1.671875   c-0.3529758,2.6544189-0.5265532,5.3044853-0.9243164,7.9550781c-0.0317383,0.2124023-0.1474609,0.4101563-0.3227539,0.5898438   c-0.4481926-0.0347404-2.0461588-0.8765297-3.0341797,0.0878906c-0.9120846,0.890976-0.1874628,2.0324097,1.0039063,1.8491211   c1.4101563-0.21875,3.1313477-0.9726563,3.3422852-2.378418c0.4034834-2.6948509,0.5733957-5.3145866,0.9262695-7.972168   c0.0507813-0.3828125,0.3144531-0.7236328,0.6879883-0.8891602c2.4988194-1.108326,5.4680977-2.7880669,7.7960815-3.5723267   c6.2197227,2.2057495,12.2226658,8.934742,17.3772564,13.0689087c1.7241096,1.3792877,3.2728157,2.5676651,5.5078125,2.5366211   c0.2270508-0.0039063,0.918457-0.0151367,1.2880859-0.5478516c0.2753906-0.3989258,0.2954102-0.8413086,0.0546875-1.2138672   c-0.3515625-0.5439453-1.2207031-0.8071289-1.7827148-0.7045898c-0.3544922,0.0644531-0.6635742,0.2011719-0.9628906,0.3330078   c-1.0208626,0.4444275-0.9620514,0.4600067-1.2241211,0.4272461C40.0987778,47.8374367,32.340435,38.2528419,24.6973095,35.485733   c-0.2145996-4.0253906-0.3197021-6.805542-0.3083496-10.6008301c1.5351601-0.1264038,3.0237789-0.7316875,4.4596558-1.2911377   c2.4550781-0.9555664,4.7622051-2.2338867,6.8588848-3.7998047c0.112793-0.0839844,0.1845703-0.2119141,0.1982422-0.3520508   c0.4454346-4.6072378,0.4466553-9.2683096,0.0517578-13.8844604c1.5953369,0.5463867,3.1517944,1.2418823,4.6550293,2.0634766   c-0.3218613,1.0624013,0.541523,1.8675179,1.3625488,1.6349492c0.0713501,0.3507881,0.1445694,0.7814913,0.2851563,1.1108398   c0.3598633,0.8427734,0.6704102,1.5703125,0.6884766,2.4609375c0.0058594,0.2724609,0.2285156,0.4897461,0.5,0.4897461   c0.003418,0,0.0068359,0,0.0102539,0c0.2758789-0.0058594,0.4951172-0.2338867,0.4897461-0.5102539   c-0.0224609-1.0844727-0.3847656-1.9335938-0.7685547-2.8330078c-0.0771484-0.1811523-0.1386719-0.4814453-0.1977539-0.7788086   c1.0778503-0.7963676,1.0787048-2.3744311,0.206543-2.9003911c-0.4926758-0.2973633-1.1513672-0.1987305-1.7641602,0.2612305   c-0.0999146,0.0747681-0.1722412,0.1538086-0.2545776,0.2312012c-1.7070313-0.93927-3.4801636-1.7280273-5.3013916-2.3222046   c-0.0170898-0.1706543-0.0234375-0.3425293-0.041687-0.5130005c-0.0292969-0.2739258-0.2734375-0.4750977-0.550293-0.4438477   c-0.2744141,0.0292969-0.4731445,0.2758789-0.4438477,0.550293c0.0039673,0.0371094,0.005188,0.0744629,0.0090942,0.1115723   c-3.310667-0.9528198-6.7249737-1.3470459-10.0452251-1.092041c-3.7662354,0.2911987-7.3759155,1.3555298-10.8815308,2.6082153   c0.0092163-0.2501831-0.1619263-0.4744873-0.4153442-0.5134888c-0.2700195-0.0429688-0.5283203,0.1450195-0.5703125,0.4179688   l-0.074646,0.4838867c-0.819397,0.302124-1.6352539,0.6086426-2.444397,0.9174805   C9.9799843,6.4266605,9.0176735,6.1006951,8.3530102,6.3813634C7.4044929,6.7811923,7.0554991,8.1860046,7.9238105,8.989274   c-0.6767578,0.8007813-1.2114258,1.7226563-1.5556641,2.7075195c-0.0908203,0.2607422,0.0463867,0.5458984,0.3071289,0.637207   C6.9343452,12.4242115,7.2206059,12.2888432,7.3124824,12.0268717z M11.3583813,50.2153473   c-0.1289063,0.0205078-0.2114258-0.0043945-0.2441406-0.003418c-0.0073242,0-0.012207,0.0014648-0.0146484,0.0043945   c0.0053711-0.0161133,0.0268555-0.0678711,0.1079102-0.1469727c0.2611475-0.254509,0.7533636-0.1802444,1.109375-0.0932617   C12.0087719,50.0839996,11.6806469,50.1655426,11.3583813,50.2153473z M46.8901176,50.5141754   c0.2729492-0.0522461,0.7353516,0.1557617,0.7695313,0.2749023c0,0.0004883-0.0019531,0.0297852-0.0444336,0.0913086   c-0.0175781,0.0258789-0.1054688,0.1108398-0.4824219,0.1166992c-0.421875,0.0068359-0.8085938-0.0395508-1.184082-0.1313477   C46.6638336,50.5519409,46.7430534,50.5408859,46.8901176,50.5141754z M41.5707817,8.2075357   c-0.0089722-0.0169678-0.0056763-0.0424194-0.0109253-0.0623779c0.0272827,0.0161743,0.0558472,0.0296631,0.0830688,0.0459595   c0.0089111,0.0333252,0.0137939,0.0673828,0.0299072,0.098938C41.6401176,8.2798014,41.5937309,8.2509928,41.5707817,8.2075357z    M42.6723442,7.1513829c0.1416016,0.0849595,0.2379265,0.4935341,0.0102539,0.9018559   c-0.0458984-0.1040044-0.0981445-0.1992192-0.159668-0.2841802c0,0-0.0004883,0-0.0004883-0.0004883   c-0.0105591-0.0145264-0.0263672-0.0219116-0.038147-0.0349731c-0.0469856-0.2771635-0.2359428-0.3437939-0.375-0.4266968   C42.2497864,7.2153096,42.5284386,7.0645413,42.6723442,7.1513829z M28.9228344,19.7754059   c-1.9519539,2.2237415-5.751955,2.9556904-8.4926147,0.6140137c-1.3342285-1.1953735-2.1661987-2.9857788-2.0650024-4.7468252   c0.0825195-1.4282227,0.3256836-2.6489258,1.2470703-3.9628906h-0.0004883   c1.2734375-1.8149414,3.434082-2.815918,5.2495117-2.4394531c2.2890625,0.4775391,4.0463867,1.7407227,4.9477539,3.5571289   C30.9228344,15.0424967,30.5585766,17.9116364,28.9228344,19.7754059z M24.8740063,4.075211   c3.3232422-0.2575684,6.7463379,0.1588745,10.0548687,1.1583252c0.4202271,4.615479,0.4348755,9.2799683,0.0027466,13.8909912   c-3.2726974,2.404398-6.5646057,3.5762081-6.6689434,3.6245117c-1.3187256,0.5141602-2.5933838,1.0039673-3.8666382,1.1251221   c0.0031891-0.4292603-0.0024757-0.2537746,0.0263062-0.7740479c1.1043091-0.1178589,2.1708984-0.4649658,3.1017456-1.0450439   c3.7644024-1.8550415,4.812685-6.4135103,3.180481-9.7020254c-1.0405273-2.097168-3.0429688-3.550293-5.6391602-4.0913086   c-1.069519-0.2224121-2.1061401-0.0688477-3.0504761,0.3000488c-2.2563782,0.683526-4.4033775,2.716918-5.2793579,5.4019775   c-1.4439163,4.4260206,1.1852398,8.4957857,5.744751,9.1095572c0.1227417,0.2304688,0.2164307,0.4721069,0.2869263,0.7234497   c-0.2987061-0.0614624-0.5980835-0.1444092-0.8991089-0.2679443c-3.5927734-1.4765625-6.9438477-3.6879883-9.7050781-6.4038086   l1.590271-10.31427C17.3516674,5.5043492,21.0485058,4.3709874,24.8740063,4.075211z M8.7416821,7.3027501   c0.2014875-0.083735,0.5951414,0.0486097,0.7875977,0.2084961c-0.3227539,0.2294922-0.6298828,0.4814453-0.918457,0.7534184   C8.2825537,7.9645333,8.440506,7.4305959,8.7416821,7.3027501z"/>
        <path d="M29.9140453,9.2573404c0.1044922,0,0.2016602-0.065918,0.2368164-0.1704102   c0.1616211-0.4794922,0.421875-0.9360352,0.7524414-1.3198247c0.0898438-0.1044922,0.078125-0.262207-0.0263672-0.3525391   c-0.1030273-0.0893555-0.2617188-0.0791016-0.3525391,0.0263672c-0.3725586,0.4321289-0.6655273,0.9462895-0.847168,1.4868169   C29.6225529,9.09056,29.7446232,9.2573404,29.9140453,9.2573404z"/>
        <path d="M30.4277172,9.6699381c0.0454102,0.0825195,0.1308594,0.1289063,0.21875,0.1289063   c0.0410156,0,0.0825195-0.0097656,0.1210938-0.03125l1.2207031-0.6738281   c0.1210918-0.0664063,0.1650372-0.21875,0.0981426-0.3393555c-0.0664063-0.121582-0.2202129-0.1655273-0.3393536-0.0981445   l-1.2216797,0.6738281C30.404768,9.3965006,30.3608227,9.5488443,30.4277172,9.6699381z"/>
        <path d="M30.9521313,10.7680826c-0.0073242,0.1376953,0.0986328,0.2553711,0.2368164,0.262207l1.1606426,0.0610352   c0.0043945,0.0004883,0.0087891,0.0004883,0.0131836,0.0004883c0.1323242,0,0.2426758-0.1035156,0.2495117-0.2368164   c0.0073242-0.1376953-0.0986328-0.2553711-0.2363281-0.2626953l-1.1616192-0.0610352   C31.0527172,10.508317,30.9589672,10.6303873,30.9521313,10.7680826z"/>
        <path d="M19.9379711,13.6606607c-0.1837387,0.1478252-0.0780888,0.4448242,0.1567383,0.4448242   c0.1347275,0,0.127306-0.0731173,0.4730835-0.2391357c0.0061417,0.5954704,0.9597416,0.5768251,0.9935913-0.1640625   c0.1746216,0.0224609,0.3455811,0.0654297,0.5030518,0.1414795c0.1240234,0.0610352,0.2739258,0.0087891,0.3339844-0.1162109   c0.0600586-0.1245117,0.0078125-0.2739258-0.1162109-0.3339844C21.5307446,13.0293131,20.5883617,13.1372232,19.9379711,13.6606607   z"/>
        <path d="M25.8886547,13.3403482c-0.2643642,0.1641254-0.0477219,0.577013,0.2427368,0.4307861   c0.0390282,0.5735569,0.978426,0.5364904,0.9910889-0.2128296c0.194397,0.0195923,0.3863525,0.0626221,0.5601196,0.1546049   c0.1220703,0.0654268,0.2729492,0.0180635,0.3378906-0.1035185c0.0649414-0.1220703,0.0185547-0.2734375-0.1035156-0.3378906   C27.2875805,12.9375162,26.4916821,12.9653482,25.8886547,13.3403482z"/>
        <path d="M24.2866039,17.5698395c-0.4160156,0.1240234-0.9018555,0.0209961-1.2329102-0.2597656   c-0.1040039-0.0883789-0.2631836-0.0756836-0.3525391,0.0292969c-0.0888672,0.1054688-0.0761719,0.2631836,0.0292969,0.3525391   c0.4555511,0.385107,1.1030064,0.5318356,1.6977539,0.3574219c0.1323242-0.0390625,0.2080078-0.1777344,0.1689453-0.3105469   S24.4218578,17.530777,24.2866039,17.5698395z"/>
    </g>
</svg>